<svg xmlns="http://www.w3.org/2000/svg" xmlns:xlink="http://www.w3.org/1999/xlink" width="40" zoomAndPan="magnify" viewBox="0 0 30 30.000001" height="40" preserveAspectRatio="xMidYMid meet" version="1.0"><defs><clipPath id="cc3fb9b2e6"><path d="M 9 1.96875 L 22 1.96875 L 22 16 L 9 16 Z M 9 1.96875 " clip-rule="nonzero"/></clipPath><clipPath id="2c13581f99"><path d="M 3.746094 15 L 26.972656 15 L 26.972656 27.375 L 3.746094 27.375 Z M 3.746094 15 " clip-rule="nonzero"/></clipPath></defs><g clip-path="url(#cc3fb9b2e6)"><path fill="#000000" d="M 15.359375 15.148438 C 18.773438 15.148438 21.546875 11.539062 21.546875 8.136719 C 21.546875 4.738281 18.773438 1.96875 15.359375 1.96875 C 11.949219 1.96875 9.175781 4.738281 9.175781 8.136719 C 9.175781 11.539062 11.949219 15.148438 15.359375 15.148438 Z M 15.359375 15.148438 " fill-opacity="1" fill-rule="nonzero"/></g><g clip-path="url(#2c13581f99)"><path fill="#000000" d="M 20.003906 15.210938 C 18.804688 16.121094 17.308594 16.664062 15.6875 16.664062 L 15.035156 16.664062 C 13.414062 16.664062 11.914062 16.121094 10.714844 15.210938 C 6.796875 15.839844 3.804688 19.226562 3.804688 23.3125 C 3.804688 25.554688 8.980469 27.375 15.359375 27.375 C 21.742188 27.375 26.914062 25.554688 26.914062 23.3125 C 26.914062 19.226562 23.921875 15.839844 20.003906 15.210938 Z M 20.003906 15.210938 " fill-opacity="1" fill-rule="nonzero"/></g></svg>