<svg xmlns="http://www.w3.org/2000/svg" xmlns:xlink="http://www.w3.org/1999/xlink" width="226" zoomAndPan="magnify" viewBox="0 0 169.5 95.249998" height="127" preserveAspectRatio="xMidYMid meet" version="1.0"><defs><g/><clipPath id="3c9bebb4ad"><path d="M 0.414062 0 L 168.589844 0 L 168.589844 94.503906 L 0.414062 94.503906 Z M 0.414062 0 " clip-rule="nonzero"/></clipPath></defs><g clip-path="url(#3c9bebb4ad)"><path fill="#ffffff" d="M 0.414062 0 L 168.589844 0 L 168.589844 94.503906 L 0.414062 94.503906 Z M 0.414062 0 " fill-opacity="1" fill-rule="nonzero"/><path fill="#ffffff" d="M 0.414062 0 L 168.589844 0 L 168.589844 94.503906 L 0.414062 94.503906 Z M 0.414062 0 " fill-opacity="1" fill-rule="nonzero"/></g><g fill="#98c379" fill-opacity="1"><g transform="translate(9.328492, 44.282951)"><g><path d="M 5.921875 0.203125 C 4.140625 0.203125 2.882812 -0.328125 2.15625 -1.390625 C 1.425781 -2.453125 1.0625 -3.914062 1.0625 -5.78125 L 1.0625 -12.15625 C 1.0625 -14.125 1.414062 -15.617188 2.125 -16.640625 C 2.84375 -17.660156 4.109375 -18.171875 5.921875 -18.171875 C 7.535156 -18.171875 8.691406 -17.734375 9.390625 -16.859375 C 10.097656 -15.984375 10.453125 -14.695312 10.453125 -13 L 10.453125 -11.5625 L 8.078125 -11.5625 L 8.078125 -12.84375 C 8.078125 -13.664062 8.039062 -14.300781 7.96875 -14.75 C 7.894531 -15.195312 7.703125 -15.550781 7.390625 -15.8125 C 7.085938 -16.082031 6.601562 -16.21875 5.9375 -16.21875 C 5.257812 -16.21875 4.753906 -16.070312 4.421875 -15.78125 C 4.085938 -15.5 3.867188 -15.097656 3.765625 -14.578125 C 3.660156 -14.066406 3.609375 -13.382812 3.609375 -12.53125 L 3.609375 -5.390625 C 3.609375 -4.460938 3.679688 -3.738281 3.828125 -3.21875 C 3.972656 -2.707031 4.210938 -2.335938 4.546875 -2.109375 C 4.878906 -1.890625 5.34375 -1.78125 5.9375 -1.78125 C 6.570312 -1.78125 7.046875 -1.921875 7.359375 -2.203125 C 7.671875 -2.484375 7.867188 -2.867188 7.953125 -3.359375 C 8.035156 -3.847656 8.078125 -4.515625 8.078125 -5.359375 L 8.078125 -6.703125 L 10.453125 -6.703125 L 10.453125 -5.359375 C 10.453125 -3.566406 10.113281 -2.191406 9.4375 -1.234375 C 8.769531 -0.273438 7.597656 0.203125 5.921875 0.203125 Z M 5.921875 0.203125 "/></g></g></g><g fill="#98c379" fill-opacity="1"><g transform="translate(24.306368, 44.282951)"><g><path d="M 6.046875 0.203125 C 4.785156 0.203125 3.800781 -0.046875 3.09375 -0.546875 C 2.394531 -1.054688 1.910156 -1.765625 1.640625 -2.671875 C 1.378906 -3.578125 1.25 -4.710938 1.25 -6.078125 L 1.25 -18.015625 L 3.65625 -18.015625 L 3.65625 -5.96875 C 3.65625 -4.601562 3.8125 -3.5625 4.125 -2.84375 C 4.445312 -2.132812 5.085938 -1.78125 6.046875 -1.78125 C 7.015625 -1.78125 7.65625 -2.132812 7.96875 -2.84375 C 8.289062 -3.5625 8.453125 -4.601562 8.453125 -5.96875 L 8.453125 -18.015625 L 10.828125 -18.015625 L 10.828125 -6.078125 C 10.828125 -4.710938 10.691406 -3.578125 10.421875 -2.671875 C 10.160156 -1.765625 9.679688 -1.054688 8.984375 -0.546875 C 8.285156 -0.046875 7.304688 0.203125 6.046875 0.203125 Z M 6.046875 0.203125 "/></g></g></g><g fill="#98c379" fill-opacity="1"><g transform="translate(39.907366, 44.282951)"><g><path d="M 5.65625 0.203125 C 4.132812 0.203125 2.976562 -0.265625 2.1875 -1.203125 C 1.394531 -2.140625 0.957031 -3.421875 0.875 -5.046875 L 3.09375 -5.65625 C 3.164062 -4.5 3.390625 -3.5625 3.765625 -2.84375 C 4.148438 -2.132812 4.78125 -1.78125 5.65625 -1.78125 C 6.300781 -1.78125 6.789062 -1.960938 7.125 -2.328125 C 7.457031 -2.691406 7.625 -3.210938 7.625 -3.890625 C 7.625 -4.628906 7.46875 -5.242188 7.15625 -5.734375 C 6.851562 -6.222656 6.359375 -6.765625 5.671875 -7.359375 L 2.640625 -10.03125 C 2.035156 -10.5625 1.59375 -11.132812 1.3125 -11.75 C 1.039062 -12.375 0.90625 -13.128906 0.90625 -14.015625 C 0.90625 -15.335938 1.285156 -16.359375 2.046875 -17.078125 C 2.804688 -17.804688 3.835938 -18.171875 5.140625 -18.171875 C 6.566406 -18.171875 7.640625 -17.789062 8.359375 -17.03125 C 9.085938 -16.28125 9.523438 -15.113281 9.671875 -13.53125 L 7.546875 -12.953125 C 7.472656 -14.003906 7.269531 -14.816406 6.9375 -15.390625 C 6.601562 -15.960938 6.003906 -16.25 5.140625 -16.25 C 4.503906 -16.25 4.015625 -16.078125 3.671875 -15.734375 C 3.328125 -15.398438 3.15625 -14.910156 3.15625 -14.265625 C 3.15625 -13.734375 3.242188 -13.285156 3.421875 -12.921875 C 3.597656 -12.554688 3.90625 -12.1875 4.34375 -11.8125 L 7.390625 -9.140625 C 8.171875 -8.441406 8.796875 -7.6875 9.265625 -6.875 C 9.734375 -6.0625 9.96875 -5.132812 9.96875 -4.09375 C 9.96875 -2.769531 9.566406 -1.722656 8.765625 -0.953125 C 7.960938 -0.179688 6.925781 0.203125 5.65625 0.203125 Z M 5.65625 0.203125 "/></g></g></g><g fill="#98c379" fill-opacity="1"><g transform="translate(53.950547, 44.282951)"><g><path d="M 3.375 -16.15625 L 0.328125 -16.15625 L 0.328125 -18.015625 L 8.859375 -18.015625 L 8.859375 -16.15625 L 5.890625 -16.15625 L 5.890625 0 L 3.375 0 Z M 3.375 -16.15625 "/></g></g></g><g fill="#98c379" fill-opacity="1"><g transform="translate(66.658462, 44.282951)"><g><path d="M 6 0.203125 C 4.238281 0.203125 2.972656 -0.296875 2.203125 -1.296875 C 1.441406 -2.296875 1.0625 -3.75 1.0625 -5.65625 L 1.0625 -12.484375 C 1.0625 -14.347656 1.445312 -15.757812 2.21875 -16.71875 C 2.988281 -17.6875 4.25 -18.171875 6 -18.171875 C 7.757812 -18.171875 9.019531 -17.6875 9.78125 -16.71875 C 10.539062 -15.75 10.921875 -14.335938 10.921875 -12.484375 L 10.921875 -5.625 C 10.921875 -3.757812 10.535156 -2.320312 9.765625 -1.3125 C 8.992188 -0.300781 7.738281 0.203125 6 0.203125 Z M 6 -1.78125 C 6.9375 -1.78125 7.566406 -2.050781 7.890625 -2.59375 C 8.222656 -3.144531 8.390625 -3.976562 8.390625 -5.09375 L 8.390625 -13 C 8.390625 -14.09375 8.222656 -14.898438 7.890625 -15.421875 C 7.566406 -15.953125 6.9375 -16.21875 6 -16.21875 C 5.050781 -16.21875 4.414062 -15.953125 4.09375 -15.421875 C 3.769531 -14.898438 3.609375 -14.09375 3.609375 -13 L 3.609375 -5.09375 C 3.609375 -3.976562 3.769531 -3.144531 4.09375 -2.59375 C 4.414062 -2.050781 5.050781 -1.78125 6 -1.78125 Z M 6 -1.78125 "/></g></g></g><g fill="#98c379" fill-opacity="1"><g transform="translate(82.170437, 44.282951)"><g><path d="M 1.6875 -18.015625 L 4.15625 -18.015625 L 7.34375 -3.40625 L 10.546875 -18.015625 L 13 -18.015625 L 13.328125 0 L 11.296875 0 L 11.109375 -13.078125 L 8.046875 0 L 6.625 0 L 3.609375 -13.078125 L 3.40625 0 L 1.359375 0 Z M 1.6875 -18.015625 "/></g></g></g><g fill="#98c379" fill-opacity="1"><g transform="translate(100.375209, 44.282951)"><g><path d="M 1.53125 -18.015625 L 4 -18.015625 L 4 0 L 1.53125 0 Z M 1.53125 -18.015625 "/></g></g></g><g fill="#98c379" fill-opacity="1"><g transform="translate(109.411142, 44.282951)"><g><path d="M 5.65625 0.203125 C 4.132812 0.203125 2.976562 -0.265625 2.1875 -1.203125 C 1.394531 -2.140625 0.957031 -3.421875 0.875 -5.046875 L 3.09375 -5.65625 C 3.164062 -4.5 3.390625 -3.5625 3.765625 -2.84375 C 4.148438 -2.132812 4.78125 -1.78125 5.65625 -1.78125 C 6.300781 -1.78125 6.789062 -1.960938 7.125 -2.328125 C 7.457031 -2.691406 7.625 -3.210938 7.625 -3.890625 C 7.625 -4.628906 7.46875 -5.242188 7.15625 -5.734375 C 6.851562 -6.222656 6.359375 -6.765625 5.671875 -7.359375 L 2.640625 -10.03125 C 2.035156 -10.5625 1.59375 -11.132812 1.3125 -11.75 C 1.039062 -12.375 0.90625 -13.128906 0.90625 -14.015625 C 0.90625 -15.335938 1.285156 -16.359375 2.046875 -17.078125 C 2.804688 -17.804688 3.835938 -18.171875 5.140625 -18.171875 C 6.566406 -18.171875 7.640625 -17.789062 8.359375 -17.03125 C 9.085938 -16.28125 9.523438 -15.113281 9.671875 -13.53125 L 7.546875 -12.953125 C 7.472656 -14.003906 7.269531 -14.816406 6.9375 -15.390625 C 6.601562 -15.960938 6.003906 -16.25 5.140625 -16.25 C 4.503906 -16.25 4.015625 -16.078125 3.671875 -15.734375 C 3.328125 -15.398438 3.15625 -14.910156 3.15625 -14.265625 C 3.15625 -13.734375 3.242188 -13.285156 3.421875 -12.921875 C 3.597656 -12.554688 3.90625 -12.1875 4.34375 -11.8125 L 7.390625 -9.140625 C 8.171875 -8.441406 8.796875 -7.6875 9.265625 -6.875 C 9.734375 -6.0625 9.96875 -5.132812 9.96875 -4.09375 C 9.96875 -2.769531 9.566406 -1.722656 8.765625 -0.953125 C 7.960938 -0.179688 6.925781 0.203125 5.65625 0.203125 Z M 5.65625 0.203125 "/></g></g></g><g fill="#98c379" fill-opacity="1"><g transform="translate(123.45432, 44.282951)"><g><path d="M 1.53125 -18.015625 L 4 -18.015625 L 4 0 L 1.53125 0 Z M 1.53125 -18.015625 "/></g></g></g><g fill="#98c379" fill-opacity="1"><g transform="translate(132.490253, 44.282951)"><g><path d="M 1.40625 -18.015625 L 3.109375 -18.015625 L 8.234375 -6.046875 L 8.234375 -18.015625 L 10.328125 -18.015625 L 10.328125 0 L 8.71875 0 L 3.53125 -12.296875 L 3.53125 0 L 1.40625 0 Z M 1.40625 -18.015625 "/></g></g></g><g fill="#98c379" fill-opacity="1"><g transform="translate(147.757432, 44.282951)"><g><path d="M 5.703125 0.21875 C 4.066406 0.21875 2.882812 -0.296875 2.15625 -1.328125 C 1.425781 -2.359375 1.0625 -3.890625 1.0625 -5.921875 L 1.0625 -11.953125 C 1.0625 -13.347656 1.207031 -14.492188 1.5 -15.390625 C 1.789062 -16.285156 2.285156 -16.972656 2.984375 -17.453125 C 3.691406 -17.929688 4.660156 -18.171875 5.890625 -18.171875 C 7.554688 -18.171875 8.753906 -17.75 9.484375 -16.90625 C 10.222656 -16.0625 10.59375 -14.734375 10.59375 -12.921875 L 10.59375 -12.265625 L 8.234375 -12.265625 L 8.234375 -12.8125 C 8.234375 -13.675781 8.179688 -14.34375 8.078125 -14.8125 C 7.972656 -15.28125 7.753906 -15.628906 7.421875 -15.859375 C 7.085938 -16.097656 6.59375 -16.21875 5.9375 -16.21875 C 5.238281 -16.21875 4.71875 -16.054688 4.375 -15.734375 C 4.039062 -15.421875 3.820312 -14.992188 3.71875 -14.453125 C 3.625 -13.921875 3.578125 -13.210938 3.578125 -12.328125 L 3.578125 -5.65625 C 3.578125 -4.269531 3.742188 -3.273438 4.078125 -2.671875 C 4.410156 -2.078125 5.050781 -1.78125 6 -1.78125 C 6.9375 -1.78125 7.578125 -2.101562 7.921875 -2.75 C 8.273438 -3.40625 8.453125 -4.453125 8.453125 -5.890625 L 8.453125 -7.140625 L 6.15625 -7.140625 L 6.15625 -8.921875 L 10.71875 -8.921875 L 10.71875 0 L 9.140625 0 L 8.90625 -2.0625 C 8.332031 -0.539062 7.265625 0.21875 5.703125 0.21875 Z M 5.703125 0.21875 "/></g></g></g><g fill="#98c379" fill-opacity="1"><g transform="translate(14.351441, 73.291264)"><g><path d="M 0.515625 -18.015625 L 2.875 -18.015625 L 5.71875 -4.734375 L 8.4375 -18.015625 L 10.71875 -18.015625 L 6.734375 0 L 4.53125 0 Z M 0.515625 -18.015625 "/></g></g></g><g fill="#98c379" fill-opacity="1"><g transform="translate(29.106765, 73.291264)"><g><path d="M 1.53125 -18.015625 L 4 -18.015625 L 4 0 L 1.53125 0 Z M 1.53125 -18.015625 "/></g></g></g><g fill="#98c379" fill-opacity="1"><g transform="translate(38.142701, 73.291264)"><g><path d="M 1.6875 -18.015625 L 4.15625 -18.015625 L 7.34375 -3.40625 L 10.546875 -18.015625 L 13 -18.015625 L 13.328125 0 L 11.296875 0 L 11.109375 -13.078125 L 8.046875 0 L 6.625 0 L 3.609375 -13.078125 L 3.40625 0 L 1.359375 0 Z M 1.6875 -18.015625 "/></g></g></g><g fill="#98c379" fill-opacity="1"><g transform="translate(56.347476, 73.291264)"><g/></g></g><g fill="#98c379" fill-opacity="1"><g transform="translate(64.960574, 73.291264)"><g><path d="M 5.1875 0.203125 C 3.96875 0.203125 3.015625 -0.171875 2.328125 -0.921875 C 1.640625 -1.671875 1.296875 -2.644531 1.296875 -3.84375 C 1.296875 -4.894531 1.523438 -5.835938 1.984375 -6.671875 C 2.453125 -7.515625 3.097656 -8.3125 3.921875 -9.0625 L 3.421875 -9.96875 C 2.953125 -10.832031 2.585938 -11.578125 2.328125 -12.203125 C 2.078125 -12.835938 1.953125 -13.503906 1.953125 -14.203125 C 1.953125 -15.398438 2.296875 -16.359375 2.984375 -17.078125 C 3.679688 -17.804688 4.625 -18.171875 5.8125 -18.171875 C 6.914062 -18.171875 7.828125 -17.867188 8.546875 -17.265625 C 9.273438 -16.671875 9.640625 -15.863281 9.640625 -14.84375 C 9.640625 -13.789062 9.316406 -12.773438 8.671875 -11.796875 C 8.023438 -10.828125 7.21875 -9.875 6.25 -8.9375 L 8.96875 -4.671875 C 9.394531 -5.503906 9.691406 -6.707031 9.859375 -8.28125 L 12.21875 -8.28125 C 12.21875 -7.445312 12.039062 -6.550781 11.6875 -5.59375 C 11.34375 -4.632812 10.941406 -3.832031 10.484375 -3.1875 C 10.691406 -2.914062 10.945312 -2.691406 11.25 -2.515625 C 11.5625 -2.347656 11.890625 -2.265625 12.234375 -2.265625 L 12.234375 0.171875 L 11.921875 0.171875 C 11.523438 0.171875 11.160156 0.0820312 10.828125 -0.09375 C 10.492188 -0.269531 10.222656 -0.445312 10.015625 -0.625 C 9.804688 -0.8125 9.488281 -1.125 9.0625 -1.5625 C 8.625 -1.019531 8.078125 -0.585938 7.421875 -0.265625 C 6.773438 0.046875 6.03125 0.203125 5.1875 0.203125 Z M 5.421875 -10.234375 C 5.929688 -10.828125 6.363281 -11.546875 6.71875 -12.390625 C 7.070312 -13.234375 7.25 -14.050781 7.25 -14.84375 C 7.25 -15.269531 7.117188 -15.601562 6.859375 -15.84375 C 6.597656 -16.09375 6.25 -16.21875 5.8125 -16.21875 C 5.300781 -16.21875 4.925781 -16.019531 4.6875 -15.625 C 4.457031 -15.238281 4.34375 -14.765625 4.34375 -14.203125 C 4.34375 -13.578125 4.4375 -12.945312 4.625 -12.3125 C 4.820312 -11.6875 5.085938 -10.992188 5.421875 -10.234375 Z M 5.1875 -1.78125 C 6.09375 -1.78125 6.898438 -2.222656 7.609375 -3.109375 L 4.84375 -7.359375 C 4.488281 -6.898438 4.203125 -6.359375 3.984375 -5.734375 C 3.773438 -5.117188 3.671875 -4.488281 3.671875 -3.84375 C 3.671875 -3.25 3.789062 -2.753906 4.03125 -2.359375 C 4.269531 -1.972656 4.65625 -1.78125 5.1875 -1.78125 Z M 5.1875 -1.78125 "/></g></g></g><g fill="#98c379" fill-opacity="1"><g transform="translate(81.963601, 73.291264)"><g/></g></g><g fill="#98c379" fill-opacity="1"><g transform="translate(90.576696, 73.291264)"><g><path d="M 1.53125 -18.015625 L 4 -18.015625 L 4 0 L 1.53125 0 Z M 1.53125 -18.015625 "/></g></g></g><g fill="#98c379" fill-opacity="1"><g transform="translate(99.612629, 73.291264)"><g><path d="M 3.375 -16.15625 L 0.328125 -16.15625 L 0.328125 -18.015625 L 8.859375 -18.015625 L 8.859375 -16.15625 L 5.890625 -16.15625 L 5.890625 0 L 3.375 0 Z M 3.375 -16.15625 "/></g></g></g><g fill="#98c379" fill-opacity="1"><g transform="translate(112.320542, 73.291264)"><g><path d="M 1.40625 -18.015625 L 8.390625 -18.015625 L 8.390625 -16.15625 L 3.921875 -16.15625 L 3.921875 -10.1875 L 7.546875 -10.1875 L 7.546875 -8.40625 L 3.921875 -8.40625 L 3.921875 -1.796875 L 8.4375 -1.796875 L 8.4375 0 L 1.40625 0 Z M 1.40625 -18.015625 "/></g></g></g><g fill="#98c379" fill-opacity="1"><g transform="translate(124.894935, 73.291264)"><g><path d="M 1.40625 -18.015625 L 5.03125 -18.015625 C 6.851562 -18.015625 8.191406 -17.640625 9.046875 -16.890625 C 9.898438 -16.148438 10.328125 -14.929688 10.328125 -13.234375 C 10.328125 -10.921875 9.582031 -9.519531 8.09375 -9.03125 L 10.65625 0 L 8.234375 0 L 5.875 -8.453125 L 3.921875 -8.453125 L 3.921875 0 L 1.40625 0 Z M 4.875 -10.25 C 5.957031 -10.25 6.734375 -10.460938 7.203125 -10.890625 C 7.671875 -11.328125 7.90625 -12.109375 7.90625 -13.234375 C 7.90625 -13.972656 7.820312 -14.554688 7.65625 -14.984375 C 7.488281 -15.410156 7.195312 -15.722656 6.78125 -15.921875 C 6.363281 -16.117188 5.78125 -16.21875 5.03125 -16.21875 L 3.921875 -16.21875 L 3.921875 -10.25 Z M 4.875 -10.25 "/></g></g></g><g fill="#98c379" fill-opacity="1"><g transform="translate(139.961828, 73.291264)"><g><path d="M 1.6875 -18.015625 L 4.15625 -18.015625 L 7.34375 -3.40625 L 10.546875 -18.015625 L 13 -18.015625 L 13.328125 0 L 11.296875 0 L 11.109375 -13.078125 L 8.046875 0 L 6.625 0 L 3.609375 -13.078125 L 3.40625 0 L 1.359375 0 Z M 1.6875 -18.015625 "/></g></g></g><g fill="#98c379" fill-opacity="1"><g transform="translate(56.640788, 16.640409)"><g><path d="M 0.65625 -8.375 L 2.34375 -8.375 C 3.1875 -8.375 3.804688 -8.195312 4.203125 -7.84375 C 4.597656 -7.5 4.796875 -6.9375 4.796875 -6.15625 C 4.796875 -5.082031 4.453125 -4.429688 3.765625 -4.203125 L 4.953125 0 L 3.828125 0 L 2.734375 -3.9375 L 1.828125 -3.9375 L 1.828125 0 L 0.65625 0 Z M 2.265625 -4.765625 C 2.765625 -4.765625 3.125 -4.863281 3.34375 -5.0625 C 3.5625 -5.269531 3.671875 -5.632812 3.671875 -6.15625 C 3.671875 -6.5 3.628906 -6.769531 3.546875 -6.96875 C 3.472656 -7.164062 3.335938 -7.3125 3.140625 -7.40625 C 2.953125 -7.5 2.6875 -7.546875 2.34375 -7.546875 L 1.828125 -7.546875 L 1.828125 -4.765625 Z M 2.265625 -4.765625 "/></g></g></g><g fill="#98c379" fill-opacity="1"><g transform="translate(63.647188, 16.640409)"><g><path d="M 0.65625 -8.375 L 3.90625 -8.375 L 3.90625 -7.515625 L 1.828125 -7.515625 L 1.828125 -4.734375 L 3.5 -4.734375 L 3.5 -3.90625 L 1.828125 -3.90625 L 1.828125 -0.84375 L 3.921875 -0.84375 L 3.921875 0 L 0.65625 0 Z M 0.65625 -8.375 "/></g></g></g><g fill="#98c379" fill-opacity="1"><g transform="translate(69.494583, 16.640409)"><g><path d="M 2.625 0.09375 C 1.925781 0.09375 1.390625 -0.117188 1.015625 -0.546875 C 0.648438 -0.984375 0.445312 -1.582031 0.40625 -2.34375 L 1.4375 -2.625 C 1.46875 -2.09375 1.570312 -1.660156 1.75 -1.328125 C 1.925781 -0.992188 2.21875 -0.828125 2.625 -0.828125 C 2.925781 -0.828125 3.15625 -0.910156 3.3125 -1.078125 C 3.46875 -1.242188 3.546875 -1.488281 3.546875 -1.8125 C 3.546875 -2.15625 3.472656 -2.441406 3.328125 -2.671875 C 3.179688 -2.898438 2.953125 -3.148438 2.640625 -3.421875 L 1.234375 -4.671875 C 0.953125 -4.910156 0.742188 -5.171875 0.609375 -5.453125 C 0.484375 -5.742188 0.421875 -6.097656 0.421875 -6.515625 C 0.421875 -7.128906 0.597656 -7.601562 0.953125 -7.9375 C 1.304688 -8.28125 1.785156 -8.453125 2.390625 -8.453125 C 3.046875 -8.453125 3.539062 -8.273438 3.875 -7.921875 C 4.21875 -7.566406 4.425781 -7.019531 4.5 -6.28125 L 3.5 -6.015625 C 3.46875 -6.503906 3.375 -6.878906 3.21875 -7.140625 C 3.0625 -7.410156 2.785156 -7.546875 2.390625 -7.546875 C 2.085938 -7.546875 1.859375 -7.46875 1.703125 -7.3125 C 1.546875 -7.15625 1.46875 -6.925781 1.46875 -6.625 C 1.46875 -6.382812 1.507812 -6.175781 1.59375 -6 C 1.675781 -5.832031 1.816406 -5.664062 2.015625 -5.5 L 3.4375 -4.25 C 3.800781 -3.925781 4.09375 -3.570312 4.3125 -3.1875 C 4.53125 -2.8125 4.640625 -2.382812 4.640625 -1.90625 C 4.640625 -1.289062 4.453125 -0.800781 4.078125 -0.4375 C 3.703125 -0.0820312 3.21875 0.09375 2.625 0.09375 Z M 2.625 0.09375 "/></g></g></g><g fill="#98c379" fill-opacity="1"><g transform="translate(76.024961, 16.640409)"><g><path d="M 2.796875 0.09375 C 1.972656 0.09375 1.382812 -0.132812 1.03125 -0.59375 C 0.675781 -1.0625 0.5 -1.738281 0.5 -2.625 L 0.5 -5.796875 C 0.5 -6.671875 0.675781 -7.332031 1.03125 -7.78125 C 1.394531 -8.226562 1.984375 -8.453125 2.796875 -8.453125 C 3.609375 -8.453125 4.191406 -8.222656 4.546875 -7.765625 C 4.898438 -7.316406 5.078125 -6.660156 5.078125 -5.796875 L 5.078125 -2.609375 C 5.078125 -1.742188 4.894531 -1.078125 4.53125 -0.609375 C 4.175781 -0.140625 3.597656 0.09375 2.796875 0.09375 Z M 2.796875 -0.828125 C 3.222656 -0.828125 3.515625 -0.953125 3.671875 -1.203125 C 3.828125 -1.460938 3.90625 -1.851562 3.90625 -2.375 L 3.90625 -6.046875 C 3.90625 -6.554688 3.828125 -6.929688 3.671875 -7.171875 C 3.515625 -7.421875 3.222656 -7.546875 2.796875 -7.546875 C 2.347656 -7.546875 2.046875 -7.421875 1.890625 -7.171875 C 1.742188 -6.929688 1.671875 -6.554688 1.671875 -6.046875 L 1.671875 -2.375 C 1.671875 -1.851562 1.742188 -1.460938 1.890625 -1.203125 C 2.046875 -0.953125 2.347656 -0.828125 2.796875 -0.828125 Z M 2.796875 -0.828125 "/></g></g></g><g fill="#98c379" fill-opacity="1"><g transform="translate(83.238323, 16.640409)"><g><path d="M 2.8125 0.09375 C 2.226562 0.09375 1.769531 -0.0195312 1.4375 -0.25 C 1.113281 -0.488281 0.890625 -0.816406 0.765625 -1.234375 C 0.640625 -1.660156 0.578125 -2.191406 0.578125 -2.828125 L 0.578125 -8.375 L 1.703125 -8.375 L 1.703125 -2.765625 C 1.703125 -2.140625 1.773438 -1.660156 1.921875 -1.328125 C 2.066406 -0.992188 2.363281 -0.828125 2.8125 -0.828125 C 3.257812 -0.828125 3.554688 -0.992188 3.703125 -1.328125 C 3.859375 -1.660156 3.9375 -2.140625 3.9375 -2.765625 L 3.9375 -8.375 L 5.03125 -8.375 L 5.03125 -2.828125 C 5.03125 -2.191406 4.96875 -1.660156 4.84375 -1.234375 C 4.726562 -0.816406 4.503906 -0.488281 4.171875 -0.25 C 3.847656 -0.0195312 3.394531 0.09375 2.8125 0.09375 Z M 2.8125 0.09375 "/></g></g></g><g fill="#98c379" fill-opacity="1"><g transform="translate(90.493075, 16.640409)"><g><path d="M 0.65625 -8.375 L 2.34375 -8.375 C 3.1875 -8.375 3.804688 -8.195312 4.203125 -7.84375 C 4.597656 -7.5 4.796875 -6.9375 4.796875 -6.15625 C 4.796875 -5.082031 4.453125 -4.429688 3.765625 -4.203125 L 4.953125 0 L 3.828125 0 L 2.734375 -3.9375 L 1.828125 -3.9375 L 1.828125 0 L 0.65625 0 Z M 2.265625 -4.765625 C 2.765625 -4.765625 3.125 -4.863281 3.34375 -5.0625 C 3.5625 -5.269531 3.671875 -5.632812 3.671875 -6.15625 C 3.671875 -6.5 3.628906 -6.769531 3.546875 -6.96875 C 3.472656 -7.164062 3.335938 -7.3125 3.140625 -7.40625 C 2.953125 -7.5 2.6875 -7.546875 2.34375 -7.546875 L 1.828125 -7.546875 L 1.828125 -4.765625 Z M 2.265625 -4.765625 "/></g></g></g><g fill="#98c379" fill-opacity="1"><g transform="translate(97.499477, 16.640409)"><g><path d="M 2.75 0.09375 C 1.925781 0.09375 1.34375 -0.148438 1 -0.640625 C 0.664062 -1.140625 0.5 -1.820312 0.5 -2.6875 L 0.5 -5.640625 C 0.5 -6.554688 0.660156 -7.253906 0.984375 -7.734375 C 1.316406 -8.210938 1.90625 -8.453125 2.75 -8.453125 C 3.5 -8.453125 4.035156 -8.25 4.359375 -7.84375 C 4.691406 -7.4375 4.859375 -6.835938 4.859375 -6.046875 L 4.859375 -5.375 L 3.75 -5.375 L 3.75 -5.96875 C 3.75 -6.351562 3.734375 -6.648438 3.703125 -6.859375 C 3.671875 -7.066406 3.582031 -7.234375 3.4375 -7.359375 C 3.300781 -7.484375 3.078125 -7.546875 2.765625 -7.546875 C 2.441406 -7.546875 2.203125 -7.476562 2.046875 -7.34375 C 1.898438 -7.207031 1.800781 -7.019531 1.75 -6.78125 C 1.695312 -6.539062 1.671875 -6.222656 1.671875 -5.828125 L 1.671875 -2.5 C 1.671875 -2.070312 1.703125 -1.738281 1.765625 -1.5 C 1.835938 -1.257812 1.953125 -1.085938 2.109375 -0.984375 C 2.265625 -0.878906 2.484375 -0.828125 2.765625 -0.828125 C 3.054688 -0.828125 3.273438 -0.890625 3.421875 -1.015625 C 3.566406 -1.148438 3.65625 -1.332031 3.6875 -1.5625 C 3.726562 -1.789062 3.75 -2.101562 3.75 -2.5 L 3.75 -3.109375 L 4.859375 -3.109375 L 4.859375 -2.5 C 4.859375 -1.65625 4.703125 -1.007812 4.390625 -0.5625 C 4.078125 -0.125 3.53125 0.09375 2.75 0.09375 Z M 2.75 0.09375 "/></g></g></g><g fill="#98c379" fill-opacity="1"><g transform="translate(104.46448, 16.640409)"><g><path d="M 0.65625 -8.375 L 3.90625 -8.375 L 3.90625 -7.515625 L 1.828125 -7.515625 L 1.828125 -4.734375 L 3.5 -4.734375 L 3.5 -3.90625 L 1.828125 -3.90625 L 1.828125 -0.84375 L 3.921875 -0.84375 L 3.921875 0 L 0.65625 0 Z M 0.65625 -8.375 "/></g></g></g><g fill="#98c379" fill-opacity="1"><g transform="translate(110.311876, 16.640409)"><g><path d="M 0.625 -5.46875 L 1.734375 -5.46875 L 1.734375 -4.296875 L 0.625 -4.296875 Z M 0.625 -2.171875 L 1.734375 -2.171875 L 1.734375 -1 L 0.625 -1 Z M 0.625 -2.171875 "/></g></g></g><g fill="#98c379" fill-opacity="1"><g transform="translate(62.090503, 86.867604)"><g><path d="M 0.28125 -3.5625 L 0.78125 -3.5625 L 0.78125 -1.890625 L 1.59375 -3.5625 L 2.0625 -3.5625 L 1.359375 -2 L 2.171875 0 L 1.6875 0 L 1 -1.671875 L 0.78125 -1.265625 L 0.78125 0 L 0.28125 0 Z M 0.28125 -3.5625 "/></g></g></g><g fill="#98c379" fill-opacity="1"><g transform="translate(64.963295, 86.867604)"><g><path d="M 0.28125 -3.5625 L 0.609375 -3.5625 L 1.625 -1.203125 L 1.625 -3.5625 L 2.046875 -3.5625 L 2.046875 0 L 1.734375 0 L 0.703125 -2.4375 L 0.703125 0 L 0.28125 0 Z M 0.28125 -3.5625 "/></g></g></g><g fill="#98c379" fill-opacity="1"><g transform="translate(67.981265, 86.867604)"><g><path d="M 0.28125 -3.5625 L 1.09375 -3.5625 C 1.414062 -3.5625 1.65625 -3.488281 1.8125 -3.34375 C 1.96875 -3.207031 2.046875 -2.984375 2.046875 -2.671875 C 2.046875 -2.210938 1.875 -1.960938 1.53125 -1.921875 C 1.75 -1.867188 1.90625 -1.769531 2 -1.625 C 2.09375 -1.476562 2.140625 -1.273438 2.140625 -1.015625 C 2.140625 -0.691406 2.0625 -0.441406 1.90625 -0.265625 C 1.757812 -0.0859375 1.535156 0 1.234375 0 L 0.28125 0 Z M 1.078125 -2.078125 C 1.273438 -2.078125 1.410156 -2.117188 1.484375 -2.203125 C 1.566406 -2.296875 1.609375 -2.453125 1.609375 -2.671875 C 1.609375 -2.828125 1.582031 -2.941406 1.53125 -3.015625 C 1.488281 -3.097656 1.421875 -3.148438 1.328125 -3.171875 C 1.234375 -3.191406 1.085938 -3.203125 0.890625 -3.203125 L 0.78125 -3.203125 L 0.78125 -2.078125 Z M 1.109375 -0.359375 C 1.253906 -0.359375 1.367188 -0.378906 1.453125 -0.421875 C 1.535156 -0.472656 1.59375 -0.546875 1.625 -0.640625 C 1.65625 -0.734375 1.671875 -0.859375 1.671875 -1.015625 C 1.671875 -1.242188 1.625 -1.414062 1.53125 -1.53125 C 1.4375 -1.644531 1.285156 -1.703125 1.078125 -1.703125 L 0.78125 -1.703125 L 0.78125 -0.359375 Z M 1.109375 -0.359375 "/></g></g></g><g fill="#98c379" fill-opacity="1"><g transform="translate(70.981636, 86.867604)"><g><path d="M 0.828125 -1.265625 L 0.046875 -3.5625 L 0.515625 -3.5625 L 1.0625 -1.84375 L 1.59375 -3.5625 L 2.0625 -3.5625 L 1.296875 -1.265625 L 1.296875 0 L 0.828125 0 Z M 0.828125 -1.265625 "/></g></g></g><g fill="#98c379" fill-opacity="1"><g transform="translate(73.792832, 86.867604)"><g><path d="M 0.671875 -3.203125 L 0.0625 -3.203125 L 0.0625 -3.5625 L 1.75 -3.5625 L 1.75 -3.203125 L 1.171875 -3.203125 L 1.171875 0 L 0.671875 0 Z M 0.671875 -3.203125 "/></g></g></g><g fill="#98c379" fill-opacity="1"><g transform="translate(76.304874, 86.867604)"><g><path d="M 0.28125 -3.5625 L 1.65625 -3.5625 L 1.65625 -3.203125 L 0.78125 -3.203125 L 0.78125 -2.015625 L 1.5 -2.015625 L 1.5 -1.671875 L 0.78125 -1.671875 L 0.78125 -0.359375 L 1.671875 -0.359375 L 1.671875 0 L 0.28125 0 Z M 0.28125 -3.5625 "/></g></g></g><g fill="#98c379" fill-opacity="1"><g transform="translate(78.790519, 86.867604)"><g/></g></g><g fill="#98c379" fill-opacity="1"><g transform="translate(80.493073, 86.867604)"><g><path d="M 1.03125 0.046875 C 0.789062 0.046875 0.597656 -0.0234375 0.453125 -0.171875 C 0.316406 -0.328125 0.25 -0.523438 0.25 -0.765625 C 0.25 -0.972656 0.296875 -1.160156 0.390625 -1.328125 C 0.484375 -1.492188 0.613281 -1.648438 0.78125 -1.796875 L 0.671875 -1.96875 C 0.578125 -2.144531 0.503906 -2.296875 0.453125 -2.421875 C 0.410156 -2.546875 0.390625 -2.675781 0.390625 -2.8125 C 0.390625 -3.050781 0.457031 -3.238281 0.59375 -3.375 C 0.726562 -3.519531 0.914062 -3.59375 1.15625 -3.59375 C 1.375 -3.59375 1.550781 -3.535156 1.6875 -3.421875 C 1.832031 -3.304688 1.90625 -3.144531 1.90625 -2.9375 C 1.90625 -2.726562 1.84375 -2.523438 1.71875 -2.328125 C 1.59375 -2.140625 1.429688 -1.953125 1.234375 -1.765625 L 1.78125 -0.921875 C 1.863281 -1.085938 1.921875 -1.328125 1.953125 -1.640625 L 2.421875 -1.640625 C 2.421875 -1.472656 2.382812 -1.296875 2.3125 -1.109375 C 2.25 -0.921875 2.171875 -0.757812 2.078125 -0.625 C 2.117188 -0.570312 2.171875 -0.53125 2.234375 -0.5 C 2.296875 -0.46875 2.359375 -0.453125 2.421875 -0.453125 L 2.421875 0.03125 L 2.359375 0.03125 C 2.285156 0.03125 2.210938 0.015625 2.140625 -0.015625 C 2.078125 -0.0546875 2.023438 -0.09375 1.984375 -0.125 C 1.941406 -0.164062 1.878906 -0.226562 1.796875 -0.3125 C 1.710938 -0.207031 1.601562 -0.117188 1.46875 -0.046875 C 1.34375 0.015625 1.195312 0.046875 1.03125 0.046875 Z M 1.078125 -2.03125 C 1.171875 -2.144531 1.253906 -2.285156 1.328125 -2.453125 C 1.398438 -2.617188 1.4375 -2.78125 1.4375 -2.9375 C 1.4375 -3.019531 1.410156 -3.085938 1.359375 -3.140625 C 1.304688 -3.191406 1.238281 -3.21875 1.15625 -3.21875 C 1.050781 -3.21875 0.972656 -3.175781 0.921875 -3.09375 C 0.878906 -3.019531 0.859375 -2.925781 0.859375 -2.8125 C 0.859375 -2.6875 0.875 -2.5625 0.90625 -2.4375 C 0.945312 -2.3125 1.003906 -2.175781 1.078125 -2.03125 Z M 1.03125 -0.359375 C 1.207031 -0.359375 1.363281 -0.441406 1.5 -0.609375 L 0.953125 -1.453125 C 0.890625 -1.367188 0.835938 -1.265625 0.796875 -1.140625 C 0.753906 -1.015625 0.734375 -0.890625 0.734375 -0.765625 C 0.734375 -0.648438 0.753906 -0.550781 0.796875 -0.46875 C 0.847656 -0.394531 0.925781 -0.359375 1.03125 -0.359375 Z M 1.03125 -0.359375 "/></g></g></g><g fill="#98c379" fill-opacity="1"><g transform="translate(83.854193, 86.867604)"><g/></g></g><g fill="#98c379" fill-opacity="1"><g transform="translate(85.556746, 86.867604)"><g><path d="M 0.03125 -0.265625 C 0.175781 -0.265625 0.285156 -0.28125 0.359375 -0.3125 C 0.429688 -0.34375 0.476562 -0.394531 0.5 -0.46875 C 0.53125 -0.539062 0.546875 -0.65625 0.546875 -0.8125 L 0.546875 -3.5625 L 1.046875 -3.5625 L 1.046875 -0.8125 C 1.046875 -0.59375 1.019531 -0.414062 0.96875 -0.28125 C 0.925781 -0.15625 0.847656 -0.0625 0.734375 0 C 0.628906 0.0507812 0.472656 0.078125 0.265625 0.078125 L 0.03125 0.078125 Z M 0.03125 -0.265625 "/></g></g></g><g fill="#98c379" fill-opacity="1"><g transform="translate(87.576056, 86.867604)"><g><path d="M 1.1875 0.046875 C 0.84375 0.046875 0.59375 -0.0507812 0.4375 -0.25 C 0.289062 -0.457031 0.21875 -0.75 0.21875 -1.125 L 0.21875 -2.46875 C 0.21875 -2.84375 0.289062 -3.125 0.4375 -3.3125 C 0.59375 -3.5 0.84375 -3.59375 1.1875 -3.59375 C 1.53125 -3.59375 1.773438 -3.492188 1.921875 -3.296875 C 2.078125 -3.109375 2.15625 -2.832031 2.15625 -2.46875 L 2.15625 -1.109375 C 2.15625 -0.742188 2.078125 -0.457031 1.921875 -0.25 C 1.773438 -0.0507812 1.53125 0.046875 1.1875 0.046875 Z M 1.1875 -0.359375 C 1.375 -0.359375 1.5 -0.410156 1.5625 -0.515625 C 1.625 -0.617188 1.65625 -0.785156 1.65625 -1.015625 L 1.65625 -2.578125 C 1.65625 -2.796875 1.625 -2.957031 1.5625 -3.0625 C 1.5 -3.164062 1.375 -3.21875 1.1875 -3.21875 C 1 -3.21875 0.875 -3.164062 0.8125 -3.0625 C 0.75 -2.957031 0.71875 -2.796875 0.71875 -2.578125 L 0.71875 -1.015625 C 0.71875 -0.785156 0.75 -0.617188 0.8125 -0.515625 C 0.875 -0.410156 1 -0.359375 1.1875 -0.359375 Z M 1.1875 -0.359375 "/></g></g></g><g fill="#98c379" fill-opacity="1"><g transform="translate(90.642419, 86.867604)"><g><path d="M 1.125 0.046875 C 0.800781 0.046875 0.566406 -0.0507812 0.421875 -0.25 C 0.285156 -0.457031 0.21875 -0.765625 0.21875 -1.171875 L 0.21875 -2.359375 C 0.21875 -2.640625 0.242188 -2.867188 0.296875 -3.046875 C 0.359375 -3.222656 0.457031 -3.359375 0.59375 -3.453125 C 0.726562 -3.546875 0.921875 -3.59375 1.171875 -3.59375 C 1.492188 -3.59375 1.726562 -3.507812 1.875 -3.34375 C 2.019531 -3.175781 2.09375 -2.914062 2.09375 -2.5625 L 2.09375 -2.421875 L 1.625 -2.421875 L 1.625 -2.53125 C 1.625 -2.707031 1.613281 -2.84375 1.59375 -2.9375 C 1.570312 -3.03125 1.53125 -3.097656 1.46875 -3.140625 C 1.40625 -3.191406 1.304688 -3.21875 1.171875 -3.21875 C 1.035156 -3.21875 0.929688 -3.179688 0.859375 -3.109375 C 0.796875 -3.046875 0.753906 -2.960938 0.734375 -2.859375 C 0.710938 -2.753906 0.703125 -2.613281 0.703125 -2.4375 L 0.703125 -1.125 C 0.703125 -0.84375 0.734375 -0.644531 0.796875 -0.53125 C 0.867188 -0.414062 1 -0.359375 1.1875 -0.359375 C 1.375 -0.359375 1.5 -0.421875 1.5625 -0.546875 C 1.632812 -0.671875 1.671875 -0.878906 1.671875 -1.171875 L 1.671875 -1.421875 L 1.21875 -1.421875 L 1.21875 -1.765625 L 2.125 -1.765625 L 2.125 0 L 1.8125 0 L 1.765625 -0.40625 C 1.648438 -0.101562 1.4375 0.046875 1.125 0.046875 Z M 1.125 0.046875 "/></g></g></g><g fill="#98c379" fill-opacity="1"><g transform="translate(93.691182, 86.867604)"><g><path d="M 0.28125 -3.5625 L 1.046875 -3.5625 C 1.429688 -3.5625 1.703125 -3.472656 1.859375 -3.296875 C 2.023438 -3.128906 2.109375 -2.859375 2.109375 -2.484375 L 2.109375 -1.171875 C 2.109375 -0.773438 2.03125 -0.476562 1.875 -0.28125 C 1.71875 -0.09375 1.457031 0 1.09375 0 L 0.28125 0 Z M 1.0625 -0.359375 C 1.226562 -0.359375 1.347656 -0.390625 1.421875 -0.453125 C 1.503906 -0.523438 1.554688 -0.617188 1.578125 -0.734375 C 1.597656 -0.847656 1.609375 -1.023438 1.609375 -1.265625 L 1.609375 -2.421875 C 1.609375 -2.617188 1.59375 -2.769531 1.5625 -2.875 C 1.539062 -2.988281 1.488281 -3.070312 1.40625 -3.125 C 1.332031 -3.175781 1.210938 -3.203125 1.046875 -3.203125 L 0.78125 -3.203125 L 0.78125 -0.359375 Z M 1.0625 -0.359375 "/></g></g></g><g fill="#98c379" fill-opacity="1"><g transform="translate(96.704753, 86.867604)"><g><path d="M 1.1875 0.046875 C 0.84375 0.046875 0.59375 -0.0507812 0.4375 -0.25 C 0.289062 -0.457031 0.21875 -0.75 0.21875 -1.125 L 0.21875 -2.46875 C 0.21875 -2.84375 0.289062 -3.125 0.4375 -3.3125 C 0.59375 -3.5 0.84375 -3.59375 1.1875 -3.59375 C 1.53125 -3.59375 1.773438 -3.492188 1.921875 -3.296875 C 2.078125 -3.109375 2.15625 -2.832031 2.15625 -2.46875 L 2.15625 -1.109375 C 2.15625 -0.742188 2.078125 -0.457031 1.921875 -0.25 C 1.773438 -0.0507812 1.53125 0.046875 1.1875 0.046875 Z M 1.1875 -0.359375 C 1.375 -0.359375 1.5 -0.410156 1.5625 -0.515625 C 1.625 -0.617188 1.65625 -0.785156 1.65625 -1.015625 L 1.65625 -2.578125 C 1.65625 -2.796875 1.625 -2.957031 1.5625 -3.0625 C 1.5 -3.164062 1.375 -3.21875 1.1875 -3.21875 C 1 -3.21875 0.875 -3.164062 0.8125 -3.0625 C 0.75 -2.957031 0.71875 -2.796875 0.71875 -2.578125 L 0.71875 -1.015625 C 0.71875 -0.785156 0.75 -0.617188 0.8125 -0.515625 C 0.875 -0.410156 1 -0.359375 1.1875 -0.359375 Z M 1.1875 -0.359375 "/></g></g></g><g fill="#98c379" fill-opacity="1"><g transform="translate(99.771116, 86.867604)"><g><path d="M 1.125 0.046875 C 0.800781 0.046875 0.566406 -0.0507812 0.421875 -0.25 C 0.285156 -0.457031 0.21875 -0.765625 0.21875 -1.171875 L 0.21875 -2.359375 C 0.21875 -2.640625 0.242188 -2.867188 0.296875 -3.046875 C 0.359375 -3.222656 0.457031 -3.359375 0.59375 -3.453125 C 0.726562 -3.546875 0.921875 -3.59375 1.171875 -3.59375 C 1.492188 -3.59375 1.726562 -3.507812 1.875 -3.34375 C 2.019531 -3.175781 2.09375 -2.914062 2.09375 -2.5625 L 2.09375 -2.421875 L 1.625 -2.421875 L 1.625 -2.53125 C 1.625 -2.707031 1.613281 -2.84375 1.59375 -2.9375 C 1.570312 -3.03125 1.53125 -3.097656 1.46875 -3.140625 C 1.40625 -3.191406 1.304688 -3.21875 1.171875 -3.21875 C 1.035156 -3.21875 0.929688 -3.179688 0.859375 -3.109375 C 0.796875 -3.046875 0.753906 -2.960938 0.734375 -2.859375 C 0.710938 -2.753906 0.703125 -2.613281 0.703125 -2.4375 L 0.703125 -1.125 C 0.703125 -0.84375 0.734375 -0.644531 0.796875 -0.53125 C 0.867188 -0.414062 1 -0.359375 1.1875 -0.359375 C 1.375 -0.359375 1.5 -0.421875 1.5625 -0.546875 C 1.632812 -0.671875 1.671875 -0.878906 1.671875 -1.171875 L 1.671875 -1.421875 L 1.21875 -1.421875 L 1.21875 -1.765625 L 2.125 -1.765625 L 2.125 0 L 1.8125 0 L 1.765625 -0.40625 C 1.648438 -0.101562 1.4375 0.046875 1.125 0.046875 Z M 1.125 0.046875 "/></g></g></g><g fill="#98c379" fill-opacity="1"><g transform="translate(102.819879, 86.867604)"><g><path d="M 1.046875 -3.203125 L 0.09375 -3.203125 L 0.09375 -3.5625 L 1.53125 -3.5625 L 1.53125 -3.34375 L 0.859375 0 L 0.40625 0 Z M 1.046875 -3.203125 "/></g></g></g><g fill="#98c379" fill-opacity="1"><g transform="translate(105.213136, 86.867604)"><g><path d="M 1.046875 -3.203125 L 0.09375 -3.203125 L 0.09375 -3.5625 L 1.53125 -3.5625 L 1.53125 -3.34375 L 0.859375 0 L 0.40625 0 Z M 1.046875 -3.203125 "/></g></g></g></svg>